<svg width="160" height="120" viewBox="0 0 160 120" fill="none" xmlns="http://www.w3.org/2000/svg">
<path d="M60.0244 35C60.0244 38.9782 58.4441 42.7936 55.631 45.6066C52.818 48.4196 49.0027 50 45.0244 50C41.0462 50 37.2309 48.4196 34.4178 45.6066C31.6048 42.7936 30.0244 38.9782 30.0244 35C30.0244 31.0218 31.6048 27.2064 34.4178 24.3934C37.2309 21.5804 41.0462 20 45.0244 20C49.0027 20 52.818 21.5804 55.631 24.3934C58.4441 27.2064 60.0244 31.0218 60.0244 35Z" fill="#D1D1D1"/>
<path d="M15 0C11.0218 0 7.20644 1.58035 4.3934 4.3934C1.58035 7.20644 0 11.0218 0 15L0 105C0 108.978 1.58035 112.794 4.3934 115.607C7.20644 118.42 11.0218 120 15 120H145C148.978 120 152.794 118.42 155.607 115.607C158.42 112.794 160 108.978 160 105V15C160 11.0218 158.42 7.20644 155.607 4.3934C152.794 1.58035 148.978 0 145 0H15ZM145 10C146.326 10 147.598 10.5268 148.536 11.4645C149.473 12.4021 150 13.6739 150 15V75L112.25 55.53C111.312 55.0602 110.25 54.8973 109.215 55.0642C108.179 55.2311 107.223 55.7194 106.48 56.46L69.38 93.56L42.78 75.84C41.8196 75.2006 40.6676 74.913 39.5194 75.026C38.3712 75.139 37.2973 75.6456 36.48 76.46L10.02 100V105.4L10 105V15C10 13.6739 10.5268 12.4021 11.4645 11.4645C12.4021 10.5268 13.6739 10 15 10H145Z" fill="#D1D1D1"/>
</svg>
